<svg id="Layer_1" data-name="Layer 1" xmlns="http://www.w3.org/2000/svg" viewBox="0 0 20 20"><path d="M9,1.31A8.9,8.9,0,0,0,5.14,2.73,7.27,7.27,0,0,0,3.75,3.88,8.78,8.78,0,0,0,7.82,18.56c.24.06.53.13.63.14l.18,0V12.6H6.39V10.06H8.63V8.94c0-.62,0-1.27,0-1.44A3,3,0,0,1,11.3,4.74a11.43,11.43,0,0,1,2.15,0l.47.06V7l-.8,0a2.81,2.81,0,0,0-1,.08,1.22,1.22,0,0,0-.74.9,10.63,10.63,0,0,0,0,1.11v.92h2.45l0,.1c0,.05-.1.6-.19,1.22s-.18,1.16-.19,1.18a4.09,4.09,0,0,1-1,0h-1v6.12h.08a8.71,8.71,0,0,0,4.77-2.47,8.66,8.66,0,0,0,2.56-5.9,8.77,8.77,0,0,0-7.82-9A14.39,14.39,0,0,0,9,1.31Z" fill="#fff"/></svg>