<svg id="Layer_1" data-name="Layer 1" xmlns="http://www.w3.org/2000/svg" viewBox="0 0 20 20"><path d="M3.44,3.36a2.91,2.91,0,0,0-1.55.87A3,3,0,0,0,1.1,5.81c0,.15,0,1.61,0,4.21a33.8,33.8,0,0,0,.07,4.29A2.92,2.92,0,0,0,2,15.86a2.71,2.71,0,0,0,1.46.77c.31.07.62.07,6.54.07,5.5,0,6.25,0,6.5-.06A2.81,2.81,0,0,0,18,15.87a2.9,2.9,0,0,0,.87-1.56A34.05,34.05,0,0,0,18.94,10a33.89,33.89,0,0,0-.07-4.31A2.9,2.9,0,0,0,18,4.13a2.76,2.76,0,0,0-1.51-.78c-.25-.05-1-.05-6.52-.05C4.11,3.3,3.72,3.3,3.44,3.36Zm.13,3c.07,0,1.48,1,3.12,2.05s3,2,3.11,2a.86.86,0,0,0,.59-.06c.07,0,1.45-1,3.07-2s3-2,3.06-2a.68.68,0,0,1,.83.3.79.79,0,0,1-.15.92c-.16.15-5.9,4-6.14,4.11a2.34,2.34,0,0,1-2.11,0c-.31-.16-6-4-6.18-4.15A.74.74,0,0,1,3,6.34.94.94,0,0,1,3.57,6.35Z" fill="#fff"/></svg>