<svg id="Layer_1" data-name="Layer 1" xmlns="http://www.w3.org/2000/svg" viewBox="0 0 20 20"><path d="M5.78,1.35A4.89,4.89,0,0,0,2.73,2.7,4.74,4.74,0,0,0,1.37,5.49c-.06.36-.06,1-.05,4.71,0,4.7,0,4.38.25,5.18A4.7,4.7,0,0,0,5.28,18.6a38.78,38.78,0,0,0,4.74.07H14.4l.41-.08a4.68,4.68,0,0,0,3.74-3.73,30.62,30.62,0,0,0,.13-5.23c0-4.18,0-4.07-.24-4.89a5.68,5.68,0,0,0-.72-1.46A4.71,4.71,0,0,0,15.38,1.6c-.84-.27-.67-.27-5.21-.27C7.93,1.32,6,1.33,5.78,1.35ZM14.37,3a3.06,3.06,0,0,1,2.17,1.35A3.16,3.16,0,0,1,17,5.42l.11.37v4c0,4.13,0,4.41-.15,5a3.2,3.2,0,0,1-1.92,2.1c-.72.26-.49.25-4.77.26-2.59,0-4,0-4.32,0a3.1,3.1,0,0,1-2.91-2.3c-.16-.61-.17-.9-.15-5s0-4.13.21-4.71A3.09,3.09,0,0,1,5.83,3C5.89,3,7.76,3,10,3,13.39,2.94,14.07,3,14.37,3Z" fill="#fff"/><path d="M14.32,4.43a1,1,0,0,0-.67,1,1,1,0,0,0,1.7.72,1,1,0,0,0-.25-1.63A1.31,1.31,0,0,0,14.32,4.43Z" fill="#fff"/><path d="M9.23,5.56a4.48,4.48,0,1,0,3.68,7.81A4.62,4.62,0,0,0,14.36,11a3.63,3.63,0,0,0,.08-1,3.13,3.13,0,0,0-.1-1.05,4.54,4.54,0,0,0-3.29-3.28A5.33,5.33,0,0,0,9.23,5.56Zm1.52,1.66A2.6,2.6,0,0,1,12,8a2.68,2.68,0,0,1,.76,1.28,3.21,3.21,0,0,1,0,1.38,2.91,2.91,0,0,1-1.91,2.07,3.17,3.17,0,0,1-1.5.08,3.09,3.09,0,0,1-1.59-1,3.41,3.41,0,0,1-.59-1.21,3.09,3.09,0,0,1,.07-1.51,2.94,2.94,0,0,1,2.31-2A3.16,3.16,0,0,1,10.75,7.22Z" fill="#fff"/></svg>