<svg id="Layer_1" data-name="Layer 1" xmlns="http://www.w3.org/2000/svg" viewBox="0 0 20 20"><path d="M6.61,1.51A2,2,0,0,0,5,3C5,3.14,5,4,5,10S5,17,5,17.13a2,2,0,0,0,1.32,1.39l.25.08h6.89l.22-.08A2,2,0,0,0,15,17.3l.09-.23v-7c0-6.74,0-7-.07-7.2a1.94,1.94,0,0,0-1.24-1.27l-.26-.1H10.14C8.3,1.48,6.72,1.5,6.61,1.51Zm6.88,7.75v5.45h-7V9.29c0-3,0-5.45,0-5.46s1.59,0,3.51,0h3.47Zm-3,6.37a1.17,1.17,0,0,1,.57,1.42,1.3,1.3,0,0,1-.7.7,1.17,1.17,0,0,1-1.54-.88,1.14,1.14,0,0,1,.54-1.2A1.12,1.12,0,0,1,10.53,15.63Z" fill="#fff"/></svg>