<svg id="Layer_1" data-name="Layer 1" xmlns="http://www.w3.org/2000/svg" viewBox="0 0 20 20"><path d="M12.79,3.24a4.36,4.36,0,0,0-1.17.39A3.42,3.42,0,0,0,10,5.8a4.43,4.43,0,0,0-.06,1.42l0,.2-.35,0a9.75,9.75,0,0,1-5-1.93A12.29,12.29,0,0,1,3,4l-.14-.16-.13.29a2.9,2.9,0,0,0-.3,1.41A3,3,0,0,0,2.67,6.9,3.84,3.84,0,0,0,3.81,8.34l.11.09-.22,0a3.72,3.72,0,0,1-1.05-.28A.93.93,0,0,0,2.37,8a1.39,1.39,0,0,0,0,.38,3.86,3.86,0,0,0,.4,1.27,3.51,3.51,0,0,0,2,1.62c.13,0,.24.08.24.1a2.59,2.59,0,0,1-1,.09l-.46,0,.11.26A3.43,3.43,0,0,0,6.42,13.8l.33,0L6.56,14a7.15,7.15,0,0,1-2.15,1,6,6,0,0,1-1.9.25H1.73l.21.12a11.85,11.85,0,0,0,1.6.77,10.1,10.1,0,0,0,7.24-.11,9.82,9.82,0,0,0,5.68-6.92,9.77,9.77,0,0,0,.24-1.89l0-.67.37-.3c.2-.17.48-.44.63-.59a5.88,5.88,0,0,0,.63-.82A1.72,1.72,0,0,0,18,5a8.19,8.19,0,0,1-1.31.34l-.18,0,.22-.17a3.37,3.37,0,0,0,1.18-1.52l.07-.19-.43.22A8.4,8.4,0,0,1,16,4.25l-.2,0-.2-.19A3.43,3.43,0,0,0,12.79,3.24Z" fill="#fff"/></svg>