<svg id="Layer_1" data-name="Layer 1" xmlns="http://www.w3.org/2000/svg" viewBox="0 0 20 20"><path d="M13.33,2.57a5,5,0,0,0-1.4.46,4.14,4.14,0,0,0-2,2.59,5.3,5.3,0,0,0-.08,1.7l0,.24-.41,0a11.7,11.7,0,0,1-6-2.31A16,16,0,0,1,1.6,3.47l-.16-.2-.16.34A3.42,3.42,0,0,0,.93,5.3a3.59,3.59,0,0,0,.29,1.64A4.71,4.71,0,0,0,2.59,8.66l.13.11-.27,0a5.15,5.15,0,0,1-1.24-.32,1.3,1.3,0,0,0-.35-.12,4.06,4.06,0,0,0,0,.46,5.11,5.11,0,0,0,.48,1.52,4.3,4.3,0,0,0,2.39,1.94.73.73,0,0,1,.29.11,3.24,3.24,0,0,1-1.2.11l-.55,0,.13.31a4.1,4.1,0,0,0,3.28,2.47l.4.05-.24.18A8.51,8.51,0,0,1,3.3,16.66,7,7,0,0,1,1,17H.11l.25.15A15.38,15.38,0,0,0,2.27,18a12,12,0,0,0,8.65-.14,11.7,11.7,0,0,0,6.8-8.28A11.08,11.08,0,0,0,18,7.36l0-.8.44-.36a8.69,8.69,0,0,0,.75-.71,6,6,0,0,0,.76-1,2.8,2.8,0,0,0-.46.15,10.07,10.07,0,0,1-1.57.4l-.23,0,.27-.2A4,4,0,0,0,19.4,3.07l.09-.22L19,3.1a10.34,10.34,0,0,1-1.85.68l-.24.05-.23-.22A4.09,4.09,0,0,0,13.33,2.57Z" fill="#fff"/></svg>